<svg width="513" height="120" viewBox="0 0 513 120" xmlns="http://www.w3.org/2000/svg" xmlns:xlink="http://www.w3.org/1999/xlink"><title>logo</title><desc>Created using Figma</desc><g transform="translate(329.23 63.846)" fill="#DD4B39"><use xlink:href="#a"/><use xlink:href="#b"/><use xlink:href="#c"/><use xlink:href="#d"/></g><use xlink:href="#e" transform="translate(121.69 62.966)" fill="#333"/><use xlink:href="#f" fill="#DD4B39"/><use xlink:href="#g" transform="translate(30.06 63.49)" fill="#FFF"/><defs><path id="a" d="M42.525 40.861c-2.031 2.339-4.538 4.2-7.52 5.587-2.982 1.342-6.417 2.014-10.307 2.014-3.544 0-6.828-.585-9.853-1.754-2.982-1.17-5.575-2.815-7.78-4.938-2.203-2.165-3.932-4.742-5.185-7.73C.627 31.052 0 27.76 0 24.166c0-3.681.627-7.016 1.88-10.004 1.296-2.989 3.068-5.522 5.316-7.6 2.247-2.123 4.883-3.747 7.908-4.873C18.13.563 21.392 0 24.893 0c3.24 0 6.417.585 9.529 1.754 3.155 1.126 5.704 2.793 7.65 5.002l-7.52 7.536c-1.038-1.43-2.4-2.49-4.084-3.184a13.52 13.52 0 0 0-5.186-1.039c-1.945 0-3.739.368-5.38 1.104a12.242 12.242 0 0 0-4.15 2.924c-1.167 1.256-2.074 2.75-2.722 4.482-.648 1.69-.973 3.551-.973 5.587 0 2.079.325 3.984.973 5.716.648 1.733 1.534 3.227 2.658 4.483a12.695 12.695 0 0 0 4.148 2.858c1.6.693 3.35 1.04 5.251 1.04 2.204 0 4.127-.434 5.77-1.3 1.642-.866 2.96-1.992 3.954-3.378l7.714 7.276z"/><path id="b" d="M94.357 24.036c0 3.638-.627 6.973-1.88 10.004-1.254 2.988-3.004 5.565-5.251 7.73-2.204 2.123-4.84 3.768-7.909 4.938-3.068 1.169-6.396 1.754-9.983 1.754-3.587 0-6.914-.585-9.983-1.754-3.025-1.17-5.661-2.815-7.908-4.938-2.204-2.165-3.933-4.742-5.186-7.73-1.253-3.031-1.88-6.366-1.88-10.004 0-3.681.627-6.994 1.88-9.94 1.253-2.988 2.982-5.521 5.186-7.6 2.247-2.079 4.883-3.681 7.908-4.807C62.42.563 65.747 0 69.334 0c3.587 0 6.915.563 9.983 1.689 3.069 1.126 5.705 2.728 7.909 4.807 2.247 2.079 3.997 4.612 5.25 7.6 1.254 2.946 1.88 6.259 1.88 9.94zm-11.863 0c0-1.992-.324-3.855-.973-5.587-.648-1.732-1.555-3.205-2.722-4.417-1.124-1.256-2.507-2.23-4.15-2.924-1.598-.736-3.37-1.104-5.315-1.104-1.944 0-3.716.368-5.315 1.104a12.24 12.24 0 0 0-4.15 2.924c-1.166 1.212-2.073 2.685-2.722 4.417-.605 1.732-.907 3.595-.907 5.587 0 2.079.324 4.006.972 5.781.648 1.733 1.534 3.227 2.658 4.483a13.05 13.05 0 0 0 4.149 2.988c1.599.693 3.37 1.04 5.315 1.04 1.945 0 3.717-.347 5.316-1.04a13.05 13.05 0 0 0 4.149-2.988c1.166-1.256 2.074-2.75 2.722-4.482.649-1.776.973-3.703.973-5.782z"/><path id="c" d="M130.826 47.227L112.351 17.15h-.195l.26 30.077h-10.761V1.234h12.641l18.41 30.013h.194l-.259-30.013h10.761v45.993h-12.576z"/><path id="d" d="M163.824 10.719v9.484h17.762v9.16h-17.762v17.864h-10.955V1.234h30.208v9.485h-19.253z"/><path id="e" fill-rule="evenodd" d="M38.608 46.479l-3.152-8.129H15.56l-3.217 8.129H0L19.763.524h12.344L51.411 46.48H38.608zM19.172 29.172H31.91l-6.303-16.389-6.435 16.39zM89.29 14.684c-4.86-2.753-11.031-4.916-14.84-4.916-2.888 0-4.793 1.049-4.793 3.146 0 7.605 24.229 3.278 24.229 19.798 0 9.375-8.273 14.16-18.516 14.16-7.682 0-15.693-2.819-21.208-7.342l4.662-9.374c4.727 4.064 11.884 6.949 16.677 6.949 3.546 0 5.778-1.312 5.778-3.737 0-7.801-24.228-3.081-24.228-19.34C57.05 5.442 64.339 0 75.435 0c6.763 0 13.592 2.098 18.385 5.179l-4.53 9.505zM124.148.197c14.248 0 24.884 9.964 24.884 23.272 0 13.439-10.636 23.534-24.884 23.534-14.248 0-24.885-10.095-24.885-23.534C99.263 10.096 109.9.197 124.148.197zm.131 10.226c-6.894 0-12.672 5.638-12.672 13.111 0 7.474 5.843 13.243 12.672 13.243 6.894 0 12.41-5.77 12.41-13.243 0-7.473-5.516-13.11-12.41-13.11zM157.233.524h10.571l20.88 27.665V.524h11.162V46.48H189.34l-20.879-27.533V46.48h-11.228V.524z"/><path id="f" d="M120 0H0v120h120V0z"/><path id="g" d="M41.234 45.954H27.642l-6.697-12.717h-8.93v12.717H0V0h20.683c12.212 0 19.172 5.9 19.172 16.127 0 6.949-2.889 12.062-8.207 14.815l9.586 15.012zM12.016 9.571v14.095h8.732c4.859 0 7.682-2.492 7.682-7.146 0-4.523-2.823-6.949-7.682-6.949h-8.732zM47.537 0h36.31v9.571H59.553v8.588h21.93v9.505l-21.93.066v8.653h24.95v9.571H47.537V0z"/></defs></svg>