<svg width="519" height="120" viewBox="0 0 519 120" xmlns="http://www.w3.org/2000/svg" xmlns:xlink="http://www.w3.org/1999/xlink"><title>logo</title><desc>Created using Figma</desc><g transform="translate(2125 366)"><use xlink:href="#a" transform="translate(-2003.94 -304.838)" fill="#333"/><use xlink:href="#b" transform="translate(-2003.94 -304.838)" fill="#333"/><use xlink:href="#c" transform="translate(-2003.94 -304.838)" fill="#333"/><use xlink:href="#d" transform="translate(-2003.94 -304.838)" fill="#333"/><g transform="translate(-1796.72 -304.838)" fill="#DD4B39"><use xlink:href="#e"/><use xlink:href="#f"/><use xlink:href="#g"/><use xlink:href="#h"/></g><use xlink:href="#i" transform="translate(-2125 -366)" fill="#DD4B39"/><use xlink:href="#j" transform="translate(-2095.31 -303.9)" fill="#FFF"/><use xlink:href="#k" transform="translate(-2095.31 -303.9)" fill="#FFF"/></g><defs><path id="a" d="M37.051 38.726H17.219l-3.685 9.112H0L20.703.938h13.065l20.77 46.9H40.736l-3.685-9.112zm-3.886-9.782l-6.03-15.008-6.03 15.008h12.06z"/><path id="b" d="M73.44 48.776c-3.796 0-7.48-.469-11.054-1.407-3.573-.938-6.477-2.189-8.71-3.752l4.355-9.782c2.1 1.385 4.534 2.501 7.303 3.35 2.77.849 5.494 1.273 8.174 1.273 5.092 0 7.638-1.273 7.638-3.819 0-1.34-.737-2.323-2.211-2.948-1.43-.67-3.752-1.362-6.968-2.077-3.529-.76-6.477-1.563-8.844-2.412a15.18 15.18 0 0 1-6.097-4.221c-1.697-1.92-2.546-4.511-2.546-7.772 0-2.859.782-5.427 2.345-7.705 1.563-2.323 3.886-4.154 6.968-5.494C66.92.67 70.739 0 75.25 0c3.082 0 6.12.357 9.112 1.072 2.993.67 5.628 1.675 7.906 3.015l-4.087 9.849c-4.467-2.412-8.8-3.618-12.998-3.618-2.635 0-4.556.402-5.762 1.206-1.206.76-1.81 1.764-1.81 3.015 0 1.25.716 2.189 2.145 2.814 1.43.625 3.73 1.273 6.9 1.943 3.574.76 6.522 1.586 8.845 2.479 2.367.849 4.4 2.233 6.097 4.154 1.742 1.876 2.613 4.444 2.613 7.705 0 2.814-.782 5.36-2.345 7.638-1.563 2.278-3.908 4.11-7.035 5.494-3.127 1.34-6.923 2.01-11.39 2.01z"/><path id="c" d="M122.65 48.776c-4.958 0-9.425-1.05-13.4-3.149-3.931-2.1-7.035-5.003-9.313-8.71-2.234-3.707-3.35-7.884-3.35-12.529s1.116-8.822 3.35-12.529c2.278-3.707 5.382-6.61 9.313-8.71 3.975-2.1 8.442-3.149 13.4-3.149s9.402 1.05 13.333 3.149c3.975 2.1 7.079 5.003 9.313 8.71 2.278 3.707 3.417 7.884 3.417 12.529s-1.139 8.822-3.417 12.529c-2.234 3.707-5.338 6.61-9.313 8.71-3.931 2.1-8.375 3.149-13.333 3.149zm0-10.988c2.367 0 4.511-.558 6.432-1.675 1.92-1.117 3.439-2.68 4.556-4.69 1.116-2.055 1.675-4.4 1.675-7.035s-.559-4.958-1.675-6.968c-1.117-2.055-2.636-3.64-4.556-4.757-1.921-1.117-4.065-1.675-6.432-1.675-2.368 0-4.512.558-6.432 1.675-1.921 1.117-3.44 2.702-4.556 4.757-1.117 2.01-1.675 4.333-1.675 6.968s.558 4.98 1.675 7.035c1.116 2.01 2.635 3.573 4.556 4.69 1.92 1.117 4.064 1.675 6.432 1.675z"/><path id="d" d="M198.943.938v46.9h-10.921l-20.703-24.991v24.991h-12.998V.938h10.921l20.703 24.991V.938h12.998z"/><path id="e" d="M25.795 48.776c-4.913 0-9.335-1.027-13.266-3.082-3.886-2.1-6.946-5.003-9.179-8.71C1.117 33.277 0 29.078 0 24.388s1.117-8.889 3.35-12.596c2.233-3.707 5.293-6.588 9.179-8.643C16.459 1.049 20.882 0 25.795 0c4.288 0 8.152.76 11.591 2.278 3.44 1.519 6.298 3.707 8.576 6.566l-8.442 7.638c-3.037-3.663-6.722-5.494-11.055-5.494-2.546 0-4.824.558-6.834 1.675-1.965 1.117-3.506 2.702-4.623 4.757-1.072 2.01-1.608 4.333-1.608 6.968s.536 4.98 1.608 7.035c1.117 2.01 2.658 3.573 4.623 4.69 2.01 1.117 4.288 1.675 6.834 1.675 4.333 0 8.018-1.831 11.055-5.494l8.442 7.638c-2.278 2.859-5.137 5.047-8.576 6.566-3.44 1.519-7.303 2.278-11.591 2.278z"/><path id="f" d="M71.866 48.776c-4.958 0-9.424-1.05-13.4-3.149-3.93-2.1-7.035-5.003-9.313-8.71-2.233-3.707-3.35-7.884-3.35-12.529s1.117-8.822 3.35-12.529c2.278-3.707 5.383-6.61 9.313-8.71C62.442 1.049 66.908 0 71.866 0S81.27 1.05 85.2 3.149c3.976 2.1 7.08 5.003 9.313 8.71 2.278 3.707 3.417 7.884 3.417 12.529s-1.139 8.822-3.417 12.529c-2.233 3.707-5.337 6.61-9.313 8.71-3.93 2.1-8.375 3.149-13.333 3.149zm0-10.988c2.368 0 4.512-.558 6.432-1.675 1.921-1.117 3.44-2.68 4.556-4.69 1.117-2.055 1.675-4.4 1.675-7.035s-.558-4.958-1.675-6.968c-1.116-2.055-2.635-3.64-4.556-4.757-1.92-1.117-4.064-1.675-6.432-1.675-2.367 0-4.51.558-6.432 1.675-1.92 1.117-3.439 2.702-4.556 4.757-1.116 2.01-1.675 4.333-1.675 6.968s.559 4.98 1.675 7.035c1.117 2.01 2.636 3.573 4.556 4.69 1.921 1.117 4.065 1.675 6.432 1.675z"/><path id="g" d="M146.82.938v46.9h-10.921l-20.703-24.991v24.991h-12.998V.938h10.921l20.703 24.991V.938h12.998z"/><path id="h" d="M166.763 11.189v10.318h20.703v10.251h-20.703v16.08h-13.266V.938h36.783v10.251h-23.517z"/><path id="i" d="M120 0H0v120h120V0z"/><path id="j" d="M20.502 34.438h-7.236V46.9H0V0h21.44c4.243 0 7.928.715 11.055 2.144 3.127 1.385 5.539 3.395 7.236 6.03 1.697 2.59 2.546 5.65 2.546 9.179 0 3.395-.804 6.365-2.412 8.911-1.563 2.501-3.819 4.467-6.767 5.896L43.215 46.9H29.011l-8.509-12.462zm8.375-17.085c0-2.189-.692-3.886-2.077-5.092-1.385-1.206-3.44-1.809-6.164-1.809h-7.37v13.735h7.37c2.725 0 4.78-.58 6.164-1.742 1.385-1.206 2.077-2.903 2.077-5.092z"/><path id="k" d="M83.9 36.649V46.9H46.246V0h36.783v10.251H59.378v7.906h20.837v9.916H59.378v8.576H83.9z"/></defs></svg>